HIERARCHY
ROOT Hips
{
	OFFSET 0.000000 0.000000 0.000000 
	CHANNELS 6 Xposition Yposition Zposition Zrotation Yrotation Xrotation
	JOINT LeftUpLeg
	{
		OFFSET 1.363060 -1.794630 0.839290 
		CHANNELS 3 Zrotation Yrotation Xrotation
		JOINT LeftLeg
		{
			OFFSET 2.448110 -6.726130 0.000000 
			CHANNELS 3 Zrotation Yrotation Xrotation
			JOINT LeftFoot
			{
				OFFSET 2.562200 -7.039590 0.000000 
				CHANNELS 3 Zrotation Yrotation Xrotation
				JOINT LeftToeBase
				{
					OFFSET 0.157640 -0.433110 2.322550 
					CHANNELS 3 Zrotation Yrotation Xrotation
					End Site
					{
						OFFSET 0.000000 0.000000 0.000000 
					}
				}
			}
		}
	}
	JOINT RightUpLeg
	{
		OFFSET -1.305520 -1.794630 0.839290 
		CHANNELS 3 Zrotation Yrotation Xrotation
		JOINT RightLeg
		{
			OFFSET -2.542530 -6.985550 0.000000 
			CHANNELS 3 Zrotation Yrotation Xrotation
			JOINT RightFoot
			{
				OFFSET -2.568260 -7.056230 0.000000 
				CHANNELS 3 Zrotation Yrotation Xrotation
				JOINT RightToeBase
				{
					OFFSET -0.164730 -0.452590 2.363150 
					CHANNELS 3 Zrotation Yrotation Xrotation
					End Site
					{
						OFFSET 0.000000 0.000000 0.000000 
					}
				}
			}
		}
	}
	JOINT Spine
	{
		OFFSET 0.028270 2.035590 -0.193380 
		CHANNELS 3 Zrotation Yrotation Xrotation
		JOINT Spine1
		{
			OFFSET 0.056720 2.048850 -0.042750 
			CHANNELS 3 Zrotation Yrotation Xrotation
			JOINT Neck1
			{
				OFFSET -0.054170 1.746240 0.172020 
				CHANNELS 3 Zrotation Yrotation Xrotation
				JOINT Head
				{
					OFFSET 0.104070 1.761360 -0.123970 
					CHANNELS 3 Zrotation Yrotation Xrotation
					End Site
					{
						OFFSET 0.000000 0.000000 0.000000 
					}
				}
			}
			JOINT LeftArm
			{
				OFFSET 3.362410 1.200890 -0.311210 
				CHANNELS 3 Zrotation Yrotation Xrotation
				JOINT LeftForeArm
				{
					OFFSET 4.983000 -0.000000 -0.000000 
					CHANNELS 3 Zrotation Yrotation Xrotation
					JOINT LeftHand
					{
						OFFSET 3.483560 -0.000000 -0.000000 
						CHANNELS 3 Zrotation Yrotation Xrotation
						JOINT LeftHandIndex1
						{
							OFFSET 0.715260 -0.000000 -0.000000 
							CHANNELS 3 Zrotation Yrotation Xrotation
							End Site
							{
								OFFSET 0.000000 0.000000 0.000000 
							}
						}
					}
				}
			}
			JOINT RightArm
			{
				OFFSET -3.136600 1.374050 -0.404650 
				CHANNELS 3 Zrotation Yrotation Xrotation
				JOINT RightForeArm
				{
					OFFSET -5.241900 -0.000000 -0.000000 
					CHANNELS 3 Zrotation Yrotation Xrotation
					JOINT RightHand
					{
						OFFSET -3.444170 -0.000000 -0.000000 
						CHANNELS 3 Zrotation Yrotation Xrotation
						JOINT RightHandIndex1
						{
							OFFSET -0.622530 -0.000000 -0.000000 
							CHANNELS 3 Zrotation Yrotation Xrotation
							End Site
							{
								OFFSET 0.000000 0.000000 0.000000 
							}
						}
					}
				}
			}
		}
	}
}
MOTION
Frames: 10
Frame Time: 0.041667
7.830901 17.603154 -11.747737 -0.607352 -5.694574 11.669463 -16.330039 -11.366773 -23.480716 0.588549 7.116226 18.791546 0.703606 -8.926865 6.858543 0.004100 0.413000 1.134700 20.128602 -5.782628 -10.918836 -1.117732 -7.697032 20.731039 4.449389 -21.638036 -17.421911 -0.015100 -0.792400 2.177700 3.040807 8.354327 -3.203600 0.675093 3.715794 -3.814282 1.546752 -9.053582 11.138087 1.401900 -5.002800 10.463800 -82.495519 7.108075 33.476606 32.112870 -44.348043 -10.945546 0.071512 1.601636 -4.342847 -7.125000 0.000000 0.000000 82.154686 53.006474 -3.258097 -8.096245 19.098323 -2.365843 -0.584129 -2.671022 -34.146572 7.125000 0.000000 0.000000 
7.831594 17.603550 -11.747539 -0.617468 -5.895489 11.646263 -16.320854 -11.289010 -23.454372 0.590275 7.123428 18.811532 0.700754 -8.803500 6.797198 0.003700 0.391000 1.074200 20.098482 -5.716112 -10.874541 -1.115762 -7.691816 20.715726 4.428195 -21.545393 -17.343127 -0.014600 -0.779000 2.141000 3.053144 8.304657 -3.184139 0.717692 3.693646 -3.782998 1.536527 -8.947544 11.170131 1.404600 -4.954200 10.486400 -82.547255 7.064484 33.471554 32.200758 -44.417817 -10.994981 0.063489 1.607058 -4.453682 -7.125000 0.000000 0.000000 82.346560 52.757363 -3.214776 -8.106419 19.138503 -2.369287 -0.592213 -2.676508 -34.160827 7.125000 0.000000 0.000000 
7.831693 17.603748 -11.747539 -0.621270 -6.075514 11.621290 -16.318448 -11.211637 -23.428121 0.591497 7.128519 18.826099 0.698310 -8.703052 6.743315 0.003200 0.363400 0.998400 20.067994 -5.655986 -10.833267 -1.114571 -7.688779 20.707333 4.408399 -21.460975 -17.278329 -0.014100 -0.767400 2.108900 3.056585 8.258482 -3.176828 0.740434 3.672536 -3.775102 1.533004 -8.859452 11.191569 1.408600 -4.912900 10.493300 -82.570969 7.048739 33.502350 32.286009 -44.484379 -11.041940 0.059064 1.608973 -4.584933 -7.125000 0.000000 0.000000 82.532283 52.466893 -3.162978 -8.134108 19.205121 -2.377682 -0.597656 -2.684166 -34.219034 7.125000 0.000000 0.000000 
7.831594 17.604044 -11.747440 -0.621373 -6.252470 11.595050 -16.319269 -11.137035 -23.397133 0.592160 7.131652 18.835123 0.695721 -8.601684 6.692182 0.002700 0.333800 0.917100 20.034787 -5.596776 -10.795592 -1.114464 -7.688537 20.707595 4.388532 -21.377479 -17.219053 -0.013600 -0.753100 2.069600 3.056384 8.213315 -3.176517 0.755695 3.651561 -3.781162 1.537383 -8.775552 11.217925 1.416800 -4.873300 10.499100 -82.587519 7.050540 33.543130 32.368430 -44.548928 -11.087922 0.056788 1.611086 -4.737898 -7.125000 0.000000 0.000000 82.725120 52.145130 -3.057154 -8.178164 19.300299 -2.391027 -0.600791 -2.693655 -34.322790 7.125000 0.000000 0.000000 
7.831594 17.604242 -11.747539 -0.618926 -6.428599 11.573317 -16.321053 -11.071276 -23.368895 0.592467 7.134233 18.842571 0.692972 -8.493660 6.641888 0.002200 0.300900 0.826700 19.998610 -5.537532 -10.768418 -1.115399 -7.690791 20.715281 4.367164 -21.289113 -17.162539 -0.013200 -0.740700 2.035700 3.053750 8.168007 -3.179281 0.766975 3.630291 -3.790412 1.550425 -8.695152 11.250491 1.429400 -4.834800 10.508400 -82.604841 7.047854 33.586849 32.446234 -44.609559 -11.130999 0.055646 1.612592 -4.895054 -7.125000 0.000000 0.000000 82.921540 51.810774 -2.902789 -8.236184 19.419125 -2.408370 -0.601661 -2.704507 -34.452843 7.125000 0.000000 0.000000 
7.832188 17.604440 -11.746946 -0.598755 -6.617398 11.553926 -16.345944 -11.006408 -23.341346 0.592855 7.137361 18.850797 0.689765 -8.377271 6.586213 0.001700 0.268700 0.738400 19.935855 -5.489846 -10.751084 -1.116703 -7.693467 20.725182 4.341638 -21.182884 -17.093351 -0.012500 -0.723300 1.987700 3.045651 8.126370 -3.182546 0.777055 3.611415 -3.793642 1.561239 -8.621238 11.272803 1.441200 -4.799700 10.508600 -82.623231 7.047858 33.634570 32.521209 -44.668903 -11.173055 0.055056 1.615015 -5.061985 -7.125000 0.000000 0.000000 83.116348 51.467426 -2.729068 -8.301151 19.549408 -2.427460 -0.600896 -2.714829 -34.585540 7.125000 0.000000 0.000000 
7.833177 17.604638 -11.746154 -0.588147 -6.820371 11.539582 -16.358145 -10.950313 -23.314296 0.593291 7.141470 18.861572 0.685910 -8.236762 6.525286 0.001300 0.233000 0.640100 19.878781 -5.431257 -10.736757 -1.117732 -7.695769 20.733677 4.315084 -21.071394 -17.017042 -0.012000 -0.706800 1.942400 3.037715 8.089458 -3.182569 0.783716 3.594919 -3.784641 1.574558 -8.546159 11.303637 1.453600 -4.763700 10.516500 -82.647965 7.032681 33.675079 32.592544 -44.726199 -11.213908 0.051589 1.620326 -5.224519 -7.125000 0.000000 0.000000 83.313468 51.138581 -2.531865 -8.369976 19.685957 -2.447762 -0.599476 -2.725269 -34.722348 7.125000 0.000000 0.000000 
7.834760 17.605034 -11.744175 -0.586130 -7.053871 11.522443 -16.363575 -10.893672 -23.275653 0.594051 7.146814 18.875657 0.680837 -8.060981 6.452411 0.000900 0.196500 0.540000 19.820543 -5.361550 -10.710215 -1.117740 -7.695496 20.734076 4.286027 -20.947940 -16.926881 -0.011400 -0.688300 1.891500 3.028503 8.064926 -3.176151 0.785654 3.584932 -3.756242 1.584750 -8.471506 11.339218 1.464200 -4.728000 10.527700 -82.676691 7.007376 33.713123 32.659164 -44.780342 -11.252420 0.047862 1.626478 -5.386414 -7.125000 0.000000 0.000000 83.508830 50.813817 -2.311077 -8.447540 19.835702 -2.470429 -0.595855 -2.735856 -34.875619 7.125000 0.000000 0.000000 
7.836244 17.605529 -11.742197 -0.595613 -7.295158 11.507320 -16.355287 -10.831570 -23.242755 0.595414 7.153970 18.895026 0.675457 -7.881229 6.378206 0.000600 0.156300 0.429400 19.775096 -5.276967 -10.675588 -1.116195 -7.691616 20.722871 4.259183 -20.831906 -16.834452 -0.010900 -0.672700 1.848500 3.019250 8.044859 -3.170294 0.781808 3.576697 -3.729591 1.598100 -8.395859 11.387324 1.475200 -4.691400 10.548400 -82.701780 6.980092 33.749802 32.728313 -44.836284 -11.292996 0.042826 1.634202 -5.540973 -7.125000 0.000000 0.000000 83.707014 50.503246 -2.108890 -8.521563 19.977259 -2.491193 -0.590850 -2.744363 -34.990488 7.125000 0.000000 0.000000 
7.837036 17.606221 -11.740317 -0.619146 -7.536720 11.490316 -16.330158 -10.762809 -23.209042 0.597053 7.161660 18.916478 0.669851 -7.702179 6.305424 0.000300 0.118500 0.325500 19.748431 -5.177456 -10.626682 -1.113352 -7.684869 20.702591 4.235682 -20.729365 -16.747442 -0.010500 -0.660200 1.814400 3.012241 8.026650 -3.164561 0.777077 3.569048 -3.704659 1.620807 -8.319271 11.445778 1.491200 -4.653800 10.575800 -82.724347 6.958061 33.785139 32.801870 -44.895193 -11.336215 0.037653 1.641414 -5.677478 -7.125000 0.000000 0.000000 83.904286 50.197823 -1.907901 -8.594661 20.116965 -2.511618 -0.585175 -2.752464 -35.101618 7.125000 0.000000 0.000000 
